<svg xmlns="http://www.w3.org/2000/svg" width="20" height="20" viewBox="0 0 20 20"><defs><clipPath id="pe8sa"><path d="M0 .03h19.972v19.972H0z"/></clipPath></defs><g><g><g><g/><g clip-path="url(#pe8sa)"><path fill="#dbdbdb" d="M9.986 1.83c2.666 0 2.982.01 4.035.057.974.045 1.503.208 1.854.344.467.181.8.398 1.149.747.35.35.565.682.747 1.149.136.351.3.88.343 1.854.049 1.053.059 1.369.059 4.035 0 2.666-.01 2.982-.059 4.035-.044.974-.207 1.503-.343 1.854a3.094 3.094 0 0 1-.747 1.149c-.35.35-.682.565-1.149.747-.351.136-.88.3-1.854.343-1.053.049-1.368.059-4.035.059s-2.982-.01-4.035-.059c-.974-.044-1.503-.207-1.854-.343a3.094 3.094 0 0 1-1.149-.747 3.094 3.094 0 0 1-.747-1.149c-.136-.351-.3-.88-.344-1.854-.048-1.053-.058-1.369-.058-4.035 0-2.666.01-2.982.058-4.035.045-.974.208-1.503.344-1.854.181-.467.398-.8.747-1.149.35-.35.682-.566 1.149-.747.351-.136.88-.3 1.854-.344C7.004 1.84 7.32 1.83 9.986 1.83m0-1.799c-2.712 0-3.052.011-4.117.06C4.806.14 4.08.307 3.445.554a4.895 4.895 0 0 0-1.769 1.152A4.895 4.895 0 0 0 .524 3.475C.277 4.11.11 4.835.06 5.899.011 6.964 0 7.304 0 10.016c0 2.712.011 3.052.06 4.117.049 1.063.217 1.789.464 2.424a4.896 4.896 0 0 0 1.152 1.769 4.895 4.895 0 0 0 1.769 1.152c.635.247 1.36.415 2.424.464 1.065.048 1.405.06 4.117.06 2.712 0 3.052-.012 4.117-.06 1.063-.049 1.789-.217 2.424-.464a4.895 4.895 0 0 0 1.769-1.152 4.895 4.895 0 0 0 1.152-1.769c.247-.635.415-1.36.464-2.424.048-1.065.06-1.405.06-4.117 0-2.712-.012-3.052-.06-4.117-.049-1.063-.217-1.789-.464-2.424a4.895 4.895 0 0 0-1.152-1.769A4.895 4.895 0 0 0 16.527.554C15.892.307 15.167.14 14.103.09 13.038.041 12.698.03 9.986.03"/></g></g><g><path fill="#dbdbdb" d="M10 5a5 5 0 1 1 0 10 5 5 0 0 1 0-10m.005 8.256a3.25 3.25 0 1 0 0-6.502 3.25 3.25 0 0 0 0 6.502"/></g><g><path fill="#dbdbdb" d="M17 4.5a1.5 1.5 0 1 1-3 0 1.5 1.5 0 0 1 3 0"/></g></g></g></svg>