<svg xmlns="http://www.w3.org/2000/svg" width="24" height="20" viewBox="0 0 24 20"><defs><clipPath id="6bzpa"><path d="M0 0h24v19.385H0z"/></clipPath></defs><g><g><g/><g clip-path="url(#6bzpa)"><path fill="#dbdbdb" d="M24 2.295a9.889 9.889 0 0 1-2.828.77A4.913 4.913 0 0 0 23.337.358a9.896 9.896 0 0 1-3.127 1.187A4.932 4.932 0 0 0 16.616 0c-2.72 0-4.924 2.191-4.924 4.894 0 .383.044.757.128 1.115A14.008 14.008 0 0 1 1.67.896a4.884 4.884 0 0 0 1.524 6.533 4.927 4.927 0 0 1-2.23-.612v.062c0 2.37 1.697 4.349 3.95 4.798a4.962 4.962 0 0 1-2.224.084 4.925 4.925 0 0 0 4.6 3.399 9.918 9.918 0 0 1-6.115 2.094c-.398 0-.79-.023-1.175-.068a14 14 0 0 0 7.548 2.199c9.057 0 14.01-7.457 14.01-13.924 0-.212-.005-.423-.015-.633A9.974 9.974 0 0 0 24 2.295"/></g></g></g></svg>