<svg xmlns="http://www.w3.org/2000/svg" width="20" height="20" viewBox="0 0 20 20"><defs><clipPath id="yl3sa"><path d="M0 0h20v20H0z"/></clipPath></defs><g><g><g/><g clip-path="url(#yl3sa)"><path fill="#dbdbdb" d="M18.52 0C19.338 0 20 .646 20 1.442v17.115c0 .796-.663 1.443-1.48 1.443H1.477C.662 20 0 19.353 0 18.557V1.442C0 .646.662 0 1.476 0zM2.965 17.042h2.969V7.498H2.964zM4.449 6.194a1.72 1.72 0 1 0-.002-3.441 1.72 1.72 0 0 0 .002 3.44zm12.594 5.614c0-2.57-.555-4.547-3.558-4.547-1.443 0-2.411.791-2.807 1.542h-.04V7.498H7.794v9.544h2.963v-4.72c0-1.245.235-2.452 1.779-2.452 1.522 0 1.542 1.424 1.542 2.531v4.641h2.965z"/></g></g></g></svg>