<svg xmlns="http://www.w3.org/2000/svg" width="91" height="32" viewBox="0 0 91 32"><defs><clipPath id="89tka"><path d="M0 .1h24.876V32H0z"/></clipPath><clipPath id="89tkb"><path d="M54.21.1h24.626V32H54.21z"/></clipPath></defs><g><g><g><g/><g clip-path="url(#89tka)"><path fill="#fefefe" d="M19.407 10.413c-.786-2.989-2.608-5.506-6.27-5.506-4.147 0-7.813 3.496-7.813 10.706 0 8.215 3.58 11.623 7.812 11.623 4.19 0 6.808-2.578 6.765-7.078h-6.328V15.7h11.303v3.671c0 7.997-4.932 12.628-11.74 12.628C6.023 32 0 27.28 0 15.613 0 5.343 6.415.1 13.136.1c6.067 0 10.736 3.977 11.653 10.313"/></g></g><g><path fill="#fefefe" d="M33.102 26.329V5.67h4.712c4.453 0 7.739 3 7.739 10.286 0 8.357-3.46 10.372-7.998 10.372zM28 31h9.641C44.342 31 51 27.443 51 15.957 51 5.585 44.602 1 37.9 1H28z"/></g><g><g/><g clip-path="url(#89tkb)"><path fill="#fefefe" d="M73.342 10.978c-.675-3.223-2.358-6.115-6.219-6.115-3.976 0-7.696 3.015-7.696 11.012 0 8.084 3.549 11.361 7.696 11.361 3.926 0 5.67-2.909 6.335-6.773h5.378C78.152 27.193 73.922 32 67.123 32c-7.055 0-12.913-4.85-12.913-16.212C54.21 5.17 60.538.1 67.08.1c6.201 0 10.904 4.326 11.632 10.88"/></g></g><g><path fill="#fefefe" d="M85.495.907a4.593 4.593 0 0 1 4.588 4.588 4.593 4.593 0 0 1-4.588 4.588 4.594 4.594 0 0 1-4.588-4.588A4.593 4.593 0 0 1 85.495.907M85.5 11c3.033 0 5.5-2.467 5.5-5.5S88.533 0 85.5 0A5.506 5.506 0 0 0 80 5.5c0 3.033 2.467 5.5 5.5 5.5"/></g><g><path fill="#fefefe" d="M86.902 4.946c-.156-.569-.52-1.042-1.262-1.042-.833 0-1.57.658-1.57 2.014 0 1.545.72 2.186 1.57 2.186.842 0 1.369-.485 1.36-1.331h-1.272v-.839H88v.691C88 8.129 87.009 9 85.64 9 84.21 9 83 8.113 83 5.918 83 3.986 84.29 3 85.64 3c1.22 0 2.158.748 2.342 1.94"/></g></g></g></svg>